#!OML:ASF H:\Terrain\Patient Classification 1\Terrain2\Thursday\justin.ASF
:FULLY-SPECIFIED
:DEGREES
2781
root 16.2026 22.7753 20.5186 848.504 -79.4088 226.112
lowerback 7.26553 1.30675 6.97664
upperback 4.85216 1.83359 4.60436
thorax 1.05302 0.883767 0.743957
lowerneck -11.7761 0.073598 -9.17716
upperneck 41.8203 -1.0825 3.64015
head 17.4002 -2.15298 2.91532
rclavicle -1.2921e-014 -3.33958e-014
rhumerus -35.4028 -12.4945 -71.1595
rradius 35.2403
rwrist -14.6691
rhand -21.5415 10.6255
rfingers 7.12502
rthumb 4.85147 -19.2989
lclavicle -1.2921e-014 -3.33958e-014
lhumerus -40.9032 19.1346 73.5516
lradius 24.0108
lwrist -2.69185
lhand -17.6733 22.5333
lfingers 7.12502
lthumb 8.58565 52.3388
rfemur 5.02204 -6.24133 31.61
rtibia 43.5453
rfoot -32.2881 -2.68079
rtoes -6.63767
lfemur -22.4233 0.207966 -10.1381
ltibia 23.0315
lfoot 17.8881 2.28899
ltoes 8.57619
2782
root 16.1175 22.7067 20.5229 848.895 -79.5898 225.632
lowerback 7.13516 1.36255 6.93537
upperback 4.87613 1.89815 4.45338
thorax 1.15542 0.923643 0.610365
lowerneck -11.951 -0.0160328 -9.09083
upperneck 41.9301 -1.28962 3.77754
head 17.5296 -2.20904 2.93184
rclavicle 2.0276e-014 5.08889e-014
rhumerus -35.5272 -13.1553 -71.0464
rradius 35.2964
rwrist -14.458
rhand -21.8773 10.7359
rfingers 7.12502
rthumb 4.5273 -19.1957
lclavicle 2.0276e-014 5.08889e-014
lhumerus -40.6573 18.6707 73.6987
lradius 23.9932
lwrist -2.59788
lhand -17.799 22.3946
lfingers 7.12502
lthumb 8.46431 52.205
rfemur 4.70637 -6.22875 31.3686
rtibia 45.2009
rfoot -32.952 -3.30671
rtoes -9.47167
lfemur -21.9436 0.229485 -10.4597
ltibia 22.2786
lfoot 18.2648 2.22108
ltoes 7.93814
2783
root 16.0298 22.6359 20.5261 848.756 -79.6788 225.848
lowerback 6.79196 1.30897 6.94921
upperback 4.85991 1.79833 4.42827
thorax 1.32596 0.880523 0.590318
lowerneck -11.9671 -0.0297599 -9.13775
upperneck 41.8546 -1.28844 3.79176
head 17.4907 -2.20926 2.94566
rclavicle -1.6201e-014 -4.45278e-014
rhumerus -35.5597 -13.2922 -71.0558
rradius 35.3777
rwrist -14.5342
rhand -22.3409 10.8909
rfingers 7.12502
rthumb 4.07954 -19.0498
lclavicle -1.6201e-014 -4.45278e-014
lhumerus -40.6194 18.7881 73.6485
lradius 23.9704
lwrist -2.93203
lhand -17.6363 22.3024
lfingers 7.12502
lthumb 8.62136 52.1064
rfemur 4.24915 -6.28993 31.2992
rtibia 46.8247
rfoot -33.5144 -3.7686
rtoes -11.332
lfemur -21.6756 0.135518 -10.5668
ltibia 21.6972
lfoot 18.4725 2.59956
ltoes 9.436
2784
root 15.9374 22.5581 20.5246 849.16 -79.8052 225.475
lowerback 6.42666 1.12825 6.64448
upperback 4.85412 1.50918 4.48767
thorax 1.49819 0.733026 0.842206
lowerneck -11.8687 0.13633 -9.20428
upperneck 41.7634 -0.960703 3.64887
head 17.379 -2.10495 2.94372
rclavicle 5.26779e-015 -1.74931e-014
rhumerus -35.4337 -12.8034 -71.2148
rradius 35.4331
rwrist -14.7727
rhand -22.4849 11.1464
rfingers 7.12502
rthumb 3.94054 -18.7969
lclavicle 5.26779e-015 -1.74931e-014
lhumerus -40.8034 19.1435 73.6267
lradius 24.038
lwrist -2.923
lhand -17.914 22.4188
lfingers 7.12502
lthumb 8.35335 52.2337
rfemur 3.88384 -6.28073 31.1258
rtibia 48.4209
rfoot -34.071 -4.05189
rtoes -12.5626
lfemur -21.3623 -0.0326458 -10.7233
ltibia 21.2724
lfoot 18.7013 2.42189
ltoes 7.97305
2785
root 15.8368 22.4602 20.5215 848.869 -79.6784 225.473
lowerback 6.38253 1.01255 6.53715
upperback 4.90411 1.33306 4.63117
thorax 1.56273 0.638561 1.06021
lowerneck -11.813 0.273696 -9.401
upperneck 41.8484 -0.739455 3.70164
head 17.3923 -2.05086 3.04123
rclavicle -4.27387e-015 -7.95139e-016
rhumerus -35.395 -12.5631 -71.153
rradius 35.457
rwrist -14.8247
rhand -22.2542 10.9725
rfingers 7.12502
rthumb 4.1633 -18.9665
lclavicle -4.27387e-015 -7.95139e-016
lhumerus -40.9696 19.0205 73.928
lradius 24.1783
lwrist -2.10372
lhand -18.647 22.6813
lfingers 7.12502
lthumb 7.64584 52.5231
rfemur 3.95308 -6.21151 31.1817
rtibia 49.9516
rfoot -34.5367 -4.37163
rtoes -13.7952
lfemur -20.7305 0.0706036 -10.6984
ltibia 20.9462
lfoot 19.163 1.23355
ltoes 3.13002
2786
root 15.7343 22.3477 20.5167 847.607 -79.4043 226.339
lowerback 6.49349 1.03871 6.75593
upperback 4.96312 1.37107 4.78077
thorax 1.56885 0.656036 1.09185
lowerneck -11.7769 0.221 -9.60639
upperneck 41.9589 -0.842319 3.84195
head 17.4601 -2.11737 3.12745
rclavicle 3.8763e-015 0
rhumerus -35.5676 -13.0569 -70.7843
rradius 35.4927
rwrist -14.5863
rhand -21.9568 10.5934
rfingers 7.12502
rthumb 4.45044 -19.3398
lclavicle 3.8763e-015 0
lhumerus -40.9447 18.6858 74.2098
lradius 24.1218
lwrist -1.93308
lhand -18.6361 22.6834
lfingers 7.12502
lthumb 7.65637 52.5248
rfemur 4.20409 -6.18755 31.4834
rtibia 51.4357
rfoot -34.9065 -4.72671
rtoes -14.8
lfemur -19.9817 0.369349 -10.5189
ltibia 20.5659
lfoot 19.5484 1.00463
ltoes 3.22927
2787
root 15.6348 22.239 20.4907 844.508 -78.8488 229.056
lowerback 6.57745 1.04441 7.18724
upperback 5.05805 1.37454 5.07264
thorax 1.63196 0.656407 1.15721
lowerneck -11.7237 0.134501 -9.45162
upperneck 41.9509 -0.929426 3.59286
head 17.4514 -2.1621 2.96751
rclavicle -1.68967e-015 4.21423e-014
rhumerus -35.7598 -13.3499 -70.5577
rradius 35.6906
rwrist -14.6427
rhand -21.8355 10.4971
rfingers 7.12502
rthumb 4.56761 -19.4337
lclavicle -1.68967e-015 4.21423e-014
lhumerus -40.7859 18.603 74.2354
lradius 23.9573
lwrist -2.46614
lhand -18.2838 22.5592
lfingers 7.12502
lthumb 7.99645 52.3879
rfemur 4.32883 -5.97701 32.4997
rtibia 52.9009
rfoot -35.2738 -4.60585
rtoes -13.3695
lfemur -19.2527 0.460034 -9.71449
ltibia 20.2529
lfoot 19.775 1.91845
ltoes 7.19271
2788
root 15.538 22.1559 20.4935 843.368 -78.9742 230.141
lowerback 6.37288 0.963731 7.2483
upperback 5.05168 1.25076 5.05406
thorax 1.73743 0.600079 1.11352
lowerneck -11.7617 0.138898 -9.3174
upperneck 42.0288 -0.922798 3.48311
head 17.5047 -2.15864 2.89464
rclavicle -1.2424e-014 2.3059e-014
rhumerus -35.9382 -13.497 -70.4843
rradius 35.8949
rwrist -14.7086
rhand -21.7668 10.7107
rfingers 7.12502
rthumb 4.63394 -19.2186
lclavicle -1.2424e-014 2.3059e-014
lhumerus -40.5798 18.2212 74.4188
lradius 23.9446
lwrist -2.42468
lhand -18.5152 22.7058
lfingers 7.12502
lthumb 7.7731 52.5429
rfemur 3.80338 -5.87913 32.4758
rtibia 54.5043
rfoot -35.6524 -3.20804
rtoes -9.43432
lfemur -18.6859 0.186356 -9.73596
ltibia 19.6629
lfoot 20.0925 2.96622
ltoes 10.4935
2789
root 15.4386 22.0616 20.4967 843.297 -79.0698 230.127
lowerback 6.23728 0.970145 7.20767
upperback 5.03532 1.24941 5.00928
thorax 1.79491 0.602484 1.09153
lowerneck -11.749 0.127575 -9.31854
upperneck 42.0944 -0.983514 3.55857
head 17.5453 -2.17931 2.92039
rclavicle 1.09332e-015 -2.78299e-014
rhumerus -36.0177 -14.0581 -70.2924
rradius 35.6691
rwrist -14.3699
rhand -21.3648 11.3685
rfingers 7.12502
rthumb 5.02211 -18.552
lclavicle 1.09332e-015 -2.78299e-014
lhumerus -40.3913 17.6952 74.7186
lradius 23.917
lwrist -2.25017
lhand -18.6727 22.534
lfingers 7.12502
lthumb 7.62108 52.3766
rfemur 3.80411 -6.40576 32.2518
rtibia 56.1917
rfoot -36.0738 -5.51125
rtoes -17.1788
lfemur -18.0966 0.225238 -9.88474
ltibia 19.1066
lfoot 20.6901 3.39416
ltoes 11.8125
